<svg height="512" viewBox="0 0 128 128" width="512" xmlns="http://www.w3.org/2000/svg"><g><path d="m6.306 6.306h39.911v7.084h-39.911z" fill="#3ea2e5"/><path d="m31.774 28.417h84.36a5.56 5.56 0 0 1 5.56 5.56v1.569h-88.423z" fill="#3ea2e5"/><circle cx="52.43" cy="108.035" fill="#6d7a84" r="13.659"/><circle cx="97.087" cy="108.035" fill="#6d7a84" r="13.659"/><circle cx="97.087" cy="108.035" fill="#dfeef4" r="5.451"/><circle cx="52.43" cy="108.035" fill="#dfeef4" r="5.451"/><path d="m116.246 35.546-10.707 50.995h-61.56l-10.708-50.995z" fill="#f45858"/><path d="m31.774 28.417-3.155-15.027h7.11l3.155 15.027z" fill="#f2da30"/><path d="m83.536 86.541h-17.554l-7.716 9.14.047.041a13.685 13.685 0 0 1 5.33 4.525l.023.019 5.606-6.641h10.973l5.607 6.641.021-.018a13.711 13.711 0 0 1 5.332-4.527l.047-.039z" fill="#f2da30"/><g fill="#dd4e4e"><path d="m102.022 51.466h-54.522a1.75 1.75 0 0 1 0-3.5h54.526a1.75 1.75 0 0 1 0 3.5z"/><path d="m100.005 62.793h-50.492a1.75 1.75 0 0 1 0-3.5h50.492a1.75 1.75 0 0 1 0 3.5z"/><path d="m97.971 74.121h-46.424a1.75 1.75 0 0 1 0-3.5h46.424a1.75 1.75 0 0 1 0 3.5z"/></g></g></svg>